<?xml version="1.0" standalone="no"?>
<!DOCTYPE svg PUBLIC "-//W3C//DTD SVG 20010904//EN"
 "http://www.w3.org/TR/2001/REC-SVG-20010904/DTD/svg10.dtd">
<svg version="1.0" xmlns="http://www.w3.org/2000/svg"
 width="728.000000pt" height="728.000000pt" viewBox="0 0 728.000000 728.000000"
 preserveAspectRatio="xMidYMid meet">
<metadata>
Created by potrace 1.11, written by Peter Selinger 2001-2013
</metadata>
<g transform="translate(0.000000,728.000000) scale(0.100000,-0.100000)"
fill="#000000" stroke="none">
<path d="M0 3640 l0 -3640 3640 0 3640 0 0 3640 0 3640 -3640 0 -3640 0 0
-3640z m4712 -221 l3 -942 405 476 405 476 499 1 498 0 -60 -67 c-32 -38 -267
-306 -520 -596 l-461 -529 116 -156 c64 -86 169 -227 233 -312 64 -85 250
-334 413 -553 l297 -397 -503 2 -502 3 -301 438 c-166 241 -305 442 -311 448
-6 6 -45 -28 -111 -100 l-102 -109 0 -341 0 -341 -400 0 -400 0 0 1770 0 1770
400 0 400 0 2 -941z m-2535 60 c202 -22 439 -104 575 -197 213 -146 327 -357
357 -661 7 -63 11 -431 11 -952 l0 -849 -400 0 -400 0 0 75 0 75 -56 -36
c-234 -150 -572 -208 -855 -149 -198 42 -404 163 -534 316 -149 175 -215 459
-169 730 38 225 145 393 327 515 164 110 334 163 552 171 267 10 505 -46 679
-159 l58 -38 -4 122 c-3 103 -7 130 -26 166 -73 139 -249 211 -482 199 -218
-12 -412 -91 -582 -238 -59 -51 -98 -62 -130 -36 -14 10 -283 479 -290 505 -4
12 124 119 215 181 311 209 741 306 1154 260z"/>
<path d="M1747 1915 c-165 -42 -252 -139 -251 -280 1 -153 109 -250 308 -275
187 -23 369 23 483 123 l33 29 0 128 0 127 -44 41 c-53 49 -80 63 -171 91 -92
29 -275 37 -358 16z"/>
</g>
</svg>
