<?xml version="1.0" standalone="no"?>
<!DOCTYPE svg PUBLIC "-//W3C//DTD SVG 20010904//EN"
 "http://www.w3.org/TR/2001/REC-SVG-20010904/DTD/svg10.dtd">
<svg version="1.0" xmlns="http://www.w3.org/2000/svg"
 width="829.000000pt" height="829.000000pt" viewBox="0 0 829.000000 829.000000"
 preserveAspectRatio="xMidYMid meet">
<metadata>
Created by potrace 1.11, written by Peter Selinger 2001-2013
</metadata>
<g transform="translate(0.000000,829.000000) scale(0.100000,-0.100000)"
fill="#000000" stroke="none">
<path d="M0 4145 l0 -4145 4145 0 4145 0 0 4145 0 4145 -4145 0 -4145 0 0
-4145z m7970 15 l0 -3820 -3820 0 -3820 0 0 3820 0 3820 3820 0 3820 0 0
-3820z"/>
<path d="M4740 3210 l0 -2570 240 0 240 0 0 658 0 657 189 189 188 188 205
-303 c113 -167 368 -548 567 -846 l362 -543 295 0 295 0 -124 182 c-141 209
-1154 1713 -1212 1801 l-39 58 635 635 634 634 -346 0 -346 0 -652 -655 -651
-656 0 1571 0 1570 -240 0 -240 0 0 -2570z"/>
<path d="M2085 4060 c-454 -38 -883 -304 -1202 -745 -293 -407 -394 -953 -267
-1457 80 -319 228 -574 483 -829 229 -228 453 -368 716 -444 238 -69 518 -74
749 -15 253 64 482 197 704 405 l92 87 0 -211 0 -211 245 0 245 0 0 1655 0
1655 -245 0 -245 0 0 -216 0 -216 -108 103 c-140 134 -255 215 -417 295 -240
117 -491 165 -750 144z m215 -440 c253 -27 466 -135 664 -337 112 -116 187
-221 255 -358 109 -220 146 -402 138 -675 -9 -300 -73 -509 -226 -738 -165
-245 -404 -431 -656 -508 -83 -26 -103 -28 -265 -28 -151 -1 -186 2 -257 21
-286 79 -549 293 -726 592 -140 236 -203 537 -177 836 24 275 107 499 262 711
65 88 214 235 299 296 153 109 342 179 519 191 25 2 52 4 60 5 8 1 58 -3 110
-8z"/>
</g>
</svg>
