<?xml version="1.0" standalone="no"?>
<!DOCTYPE svg PUBLIC "-//W3C//DTD SVG 20010904//EN"
 "http://www.w3.org/TR/2001/REC-SVG-20010904/DTD/svg10.dtd">
<svg version="1.0" xmlns="http://www.w3.org/2000/svg"
 width="211.000000pt" height="211.000000pt" viewBox="0 0 211.000000 211.000000"
 preserveAspectRatio="xMidYMid meet">
<metadata>
Created by potrace 1.11, written by Peter Selinger 2001-2013
</metadata>
<g transform="translate(0.000000,211.000000) scale(0.100000,-0.100000)"
fill="#000000" stroke="none">
<path d="M904 1973 c5 -9 -3 -13 -28 -14 -20 -1 -39 -2 -43 -3 -85 -19 -124
-33 -149 -52 -17 -13 -35 -20 -39 -16 -5 4 -5 1 -1 -5 4 -7 2 -13 -4 -13 -6 0
-9 -4 -6 -9 3 -5 -1 -11 -8 -14 -8 -3 -15 -14 -16 -24 0 -10 -1 -76 -3 -148
l-2 -130 220 0 220 -1 3 -27 c2 -15 -2 -27 -8 -27 -6 0 -8 5 -4 12 5 7 3 8 -7
2 -8 -5 -158 -9 -334 -9 l-320 -1 -59 -27 c-32 -15 -67 -36 -76 -47 -9 -11
-20 -17 -24 -15 -3 3 -4 2 -2 -1 3 -3 -6 -24 -20 -45 -13 -21 -24 -45 -24 -54
0 -8 -4 -15 -8 -15 -4 0 -9 -12 -10 -27 -2 -28 -14 -91 -22 -113 -1 -3 -2 -21
-2 -40 1 -19 -2 -42 -5 -50 -9 -24 -9 -59 -1 -54 4 3 8 -2 8 -11 0 -10 -5 -13
-12 -9 -10 6 -10 5 -1 -7 6 -8 13 -34 15 -59 2 -25 6 -50 10 -55 3 -6 8 -27
12 -48 4 -21 10 -46 13 -54 5 -12 3 -14 -7 -8 -9 5 -11 4 -6 -4 4 -6 12 -9 17
-6 8 6 13 -8 10 -28 0 -4 7 -15 17 -25 9 -10 26 -30 37 -45 27 -37 98 -65 170
-67 103 -3 155 0 154 7 -1 5 0 10 1 13 7 18 7 39 0 35 -4 -3 -8 11 -7 29 1 22
5 32 11 28 6 -3 5 2 -3 11 -11 14 -11 17 0 17 9 0 10 3 3 8 -15 9 -14 83 0 75
7 -4 7 -1 0 6 -12 13 -7 54 6 46 4 -2 7 3 7 13 0 34 3 43 13 37 6 -3 7 1 4 9
-3 9 -1 16 5 16 6 0 11 6 11 13 0 21 47 60 62 51 7 -4 10 -4 6 1 -11 12 11 35
33 35 11 0 19 5 19 11 0 6 6 9 14 6 7 -3 17 -2 22 3 5 5 141 10 301 11 161 1
291 5 288 9 -3 4 5 10 18 14 12 3 37 19 55 36 17 17 36 29 41 26 5 -4 7 2 4
12 -2 11 1 25 9 33 7 8 13 20 14 27 1 6 2 24 3 38 0 16 5 23 13 18 7 -5 8 -3
3 7 -13 20 -13 69 -1 69 8 0 7 3 0 8 -13 8 -12 70 0 91 7 10 5 12 -3 6 -17
-10 -9 59 9 80 10 12 9 16 -2 20 -18 7 -17 47 2 69 10 13 10 16 1 14 -8 -2
-15 5 -16 15 -2 9 2 17 8 17 8 0 8 3 2 8 -5 4 -11 25 -12 47 -1 22 -3 47 -5
55 -9 39 -106 149 -126 142 -6 -2 -13 2 -17 7 -3 6 -15 11 -26 11 -10 0 -19 3
-19 8 0 4 -12 7 -27 8 -52 2 -88 9 -95 19 -5 6 -8 5 -8 -3 0 -7 -5 -10 -12 -6
-14 9 -226 9 -235 1 -3 -4 -13 -1 -21 6 -13 9 -14 9 -8 0z m616 -427 c0 -3 -4
-8 -10 -11 -5 -3 -10 -1 -10 4 0 6 5 11 10 11 6 0 10 -2 10 -4z"/>
<path d="M1565 1486 c-8 -7 -13 -25 -12 -46 2 -19 -1 -41 -6 -47 -5 -7 -6 -13
-1 -13 5 0 8 -21 7 -47 -1 -27 -2 -63 -2 -81 -1 -18 -5 -31 -10 -28 -5 3 -9 0
-8 -7 1 -35 -4 -48 -15 -41 -7 4 -10 4 -6 -1 17 -19 -80 -134 -102 -120 -4 3
-11 -2 -14 -11 -4 -9 -9 -14 -13 -11 -3 4 -13 1 -21 -6 -11 -9 -92 -13 -299
-15 -220 -3 -291 -7 -316 -18 -60 -27 -100 -57 -90 -68 4 -3 1 -6 -5 -6 -6 0
-14 -9 -17 -20 -4 -11 -10 -18 -15 -15 -4 3 -6 -5 -2 -17 3 -14 1 -19 -6 -14
-8 5 -10 2 -6 -9 4 -8 1 -22 -6 -30 -7 -8 -8 -15 -3 -15 11 0 9 -42 -2 -59 -3
-6 -1 -11 5 -11 7 0 8 -6 0 -19 -5 -11 -6 -22 -1 -25 9 -6 7 -48 -3 -65 -4 -5
-3 -12 1 -14 10 -6 9 -79 -1 -95 -4 -7 -3 -12 2 -12 9 0 7 -89 -3 -98 -2 -3 0
-13 5 -23 7 -12 6 -20 -1 -25 -8 -4 -7 -9 2 -14 10 -7 10 -12 -2 -26 -8 -10
-9 -15 -2 -11 7 5 14 -2 19 -15 4 -13 15 -34 25 -47 10 -13 16 -28 12 -34 -3
-6 -1 -7 6 -3 13 8 44 -18 33 -29 -4 -4 -2 -6 3 -5 16 3 55 -12 51 -19 -3 -4
3 -7 12 -8 24 -2 146 -37 152 -43 7 -8 260 -4 295 4 17 4 38 8 48 9 9 1 17 5
17 10 0 5 9 7 20 4 10 -3 20 -1 22 5 2 5 10 11 18 13 36 8 60 18 60 25 0 4 15
15 34 25 19 11 32 23 29 29 -4 5 0 7 9 3 12 -4 14 -1 10 15 -4 16 -2 19 9 13
8 -5 11 -5 7 0 -4 4 -2 17 4 29 6 11 11 39 11 61 0 22 4 48 9 59 7 13 7 16 -1
12 -6 -4 -11 -2 -11 3 0 6 6 11 13 11 8 0 8 3 2 8 -13 9 -13 42 -1 61 6 10 5
12 -2 7 -7 -4 -12 -1 -12 9 0 10 -6 15 -13 12 -8 -3 -20 -2 -27 3 -7 4 -25 4
-40 0 -15 -4 -33 -4 -40 0 -7 4 -25 4 -40 0 -15 -4 -33 -4 -40 0 -7 4 -25 4
-40 0 -15 -4 -33 -4 -40 0 -7 4 -25 4 -40 0 -15 -4 -33 -4 -40 0 -6 4 -28 4
-47 0 -31 -8 -34 -6 -30 11 3 10 1 19 -5 19 -5 0 -6 5 -3 10 4 7 129 10 365 9
358 -1 360 -1 397 22 46 28 82 66 89 96 4 14 11 20 18 16 6 -3 8 -3 4 1 -5 6
14 78 39 146 10 26 12 52 13 160 1 97 -1 124 -16 188 -3 17 -1 22 8 17 7 -4 5
0 -4 8 -10 8 -18 21 -18 30 0 31 -54 148 -81 174 -33 32 -47 42 -53 36 -3 -4
-6 -2 -6 4 0 12 2 11 -128 16 -64 2 -108 -1 -117 -7z"/>
</g>
</svg>
