<?xml version="1.0" standalone="no"?>
<!DOCTYPE svg PUBLIC "-//W3C//DTD SVG 20010904//EN"
 "http://www.w3.org/TR/2001/REC-SVG-20010904/DTD/svg10.dtd">
<svg version="1.0" xmlns="http://www.w3.org/2000/svg"
 width="300.000000pt" height="300.000000pt" viewBox="0 0 300.000000 300.000000"
 preserveAspectRatio="xMidYMid meet">
<metadata>
Created by potrace 1.11, written by Peter Selinger 2001-2013
</metadata>
<g transform="translate(0.000000,300.000000) scale(0.100000,-0.100000)"
fill="#000000" stroke="none">
<path d="M494 2980 c-216 -56 -386 -213 -461 -426 l-28 -79 -2 -950 c-2 -1057
-4 -1018 66 -1160 68 -137 158 -227 296 -296 141 -70 102 -68 1160 -66 l950 2
79 29 c183 66 306 177 387 350 59 127 59 115 58 1121 -1 1023 1 990 -68 1130
-69 138 -159 228 -296 296 -140 69 -106 67 -1140 67 -873 1 -934 -1 -1001 -18z"/>
</g>
</svg>
